<?xml version="1.0" encoding="utf-8"?>
<!-- Generator: Adobe Illustrator 16.0.0, SVG Export Plug-In . SVG Version: 6.00 Build 0)  -->
<!DOCTYPE svg PUBLIC "-//W3C//DTD SVG 1.1//EN" "http://www.w3.org/Graphics/SVG/1.1/DTD/svg11.dtd">
<svg version="1.1" xmlns="http://www.w3.org/2000/svg" xmlns:xlink="http://www.w3.org/1999/xlink" x="0px" y="0px" width="1280px"
	 height="800px" viewBox="0 0 1280 800" enable-background="new 0 0 1280 800" xml:space="preserve">
<g id="Layer_1">
	<g>
		<path fill-rule="evenodd" clip-rule="evenodd" fill="#FFFFFF" d="M641.103,662.712c-37.255,0-74.51,0-111.765,0
			c9.314-4.995,18.621-10.005,27.945-14.98c5.685-3.034,11.398-6.017,16.887-8.91c0-12.797,0-25.133,0-37.696
			c-8.44-4.244-16.878-8.487-25.453-12.799c0-3.34,0-6.542,0-10.396c-15.517,7.913-30.575,15.593-45.634,23.272
			c0-27.504,0-55.008,0-82.512c8.461,4.522,16.923,9.044,25.554,13.656c0,3.27,0,6.481,0,10.373
			c15.544-8.151,30.61-16.051,45.56-23.89c0-12.726,0-25.076,0-37.706c-8.404-4.228-16.849-8.475-25.435-12.794
			c0-3.329,0-6.539,0-10.438c-15.539,7.925-30.609,15.609-45.679,23.294c0-27.504,0-55.008,0-82.511
			c8.535,4.567,17.069,9.133,25.775,13.792c0,3.38,0,6.528,0,10.132c15.443-8.104,30.411-15.957,45.265-23.751
			c0-12.768,0-25.207,0-37.79c-8.501-4.272-16.928-8.507-25.283-12.706c0-3.708,0-7.072,0-10.437c37.255,0,74.511,0,111.766,0
			c-6.163,3.237-12.305,6.518-18.496,9.702c-8.748,4.5-17.533,8.929-26.326,13.399c0,12.66,0,25.119,0,37.792
			c8.442,4.496,16.889,8.995,25.499,13.581c0,3.333,0,6.515,0,10.25c15.445-8.1,30.424-15.955,45.371-23.794
			c0-12.703,0-25.155,0-37.773c-8.49-4.271-16.925-8.515-25.298-12.727c0-3.694,0-7.062,0-10.43c34.755,0,69.51,0,104.265,0
			c-6.163,3.237-12.306,6.518-18.496,9.702c-8.749,4.5-17.533,8.929-26.326,13.399c0,12.66,0,25.119,0,37.792
			c8.442,4.496,16.889,8.995,25.499,13.581c0,3.333,0,6.515,0,10.25c15.445-8.1,30.424-15.955,45.371-23.794
			c0-12.703,0-25.155,0-37.773c-8.49-4.271-16.925-8.515-25.298-12.727c0-3.694,0-7.062,0-10.43c37.255,0,74.511,0,111.766,0
			c-0.709,0.479-1.377,1.039-2.134,1.423c-9.554,4.852-19.126,9.667-28.681,14.517c-4.749,2.411-9.47,4.876-13.942,7.182
			c0,12.9,0,25.347,0,37.82c8.49,4.513,16.839,8.95,25.343,13.47c0,3.303,0,6.507,0,10.389
			c15.541-8.182,30.604-16.111,45.668-24.042c0,88.012,0,176.024,0,264.037c-50.007,0-100.015,0-150.021,0
			c4.132-2.276,8.233-4.61,12.403-6.817c10.79-5.708,21.61-11.36,32.398-17.024c0-12.686,0-25.138,0-37.76
			c-8.486-4.27-16.921-8.515-25.503-12.832c0-3.391,0-6.567,0-10.278c-15.43,7.837-30.4,15.44-45.371,23.044
			c0,12.694,0,25.153,0,37.806c8.467,4.506,16.913,8.999,25.321,13.474c0,3.654,0,7.021,0,10.389c-37.255,0-74.51,0-111.766,0
			c4.133-2.276,8.234-4.61,12.404-6.817c10.79-5.708,21.61-11.36,32.398-17.024c0-12.686,0-25.138,0-37.76
			c-8.485-4.27-16.921-8.515-25.503-12.833c0-3.39,0-6.569,0-10.277c-15.43,7.837-30.401,15.44-45.371,23.044
			c0,12.694,0,25.153,0,37.806c8.466,4.506,16.912,8.999,25.321,13.474C641.103,655.978,641.103,659.345,641.103,662.712z
			 M686.683,481.107c-8.45-4.251-16.892-8.497-25.477-12.814c0-3.354,0-6.548,0-10.338c-15.511,7.882-30.569,15.532-45.351,23.043
			c0,12.957,0,25.414,0,37.881c8.51,4.523,16.865,8.965,25.38,13.491c0,3.312,0,6.509,0,10.316
			c15.53-8.148,30.594-16.053,45.447-23.847C686.683,506.02,686.683,493.673,686.683,481.107z M766.132,468.258
			c0-3.434,0-6.601,0-10.26c-15.434,7.841-30.405,15.446-45.323,23.025c0,12.739,0,25.197,0,37.812
			c8.485,4.519,16.927,9.014,25.531,13.595c0,3.366,0,6.535,0,10.21c15.451-8.105,30.429-15.963,45.31-23.771
			c0-12.759,0-25.209,0-37.795C783.227,476.844,774.885,472.654,766.132,468.258z"/>
		<path fill-rule="evenodd" clip-rule="evenodd" d="M548.84,337.917c0,3.364,0,6.729,0,10.437
			c8.355,4.199,16.782,8.434,25.283,12.706c0,12.583,0,25.022,0,37.79c-14.854,7.794-29.821,15.647-45.265,23.751
			c0-3.604,0-6.752,0-10.132c-8.706-4.659-17.24-9.226-25.775-13.792c0-12.502,0-25.004,0-37.505
			c6.643-3.394,13.298-6.762,19.924-10.188c8.374-4.331,16.723-8.708,25.083-13.065C548.34,337.917,548.59,337.917,548.84,337.917z
			 M549.204,403.358c0.253,0.1,0.505,0.199,0.758,0.299c1.961-2.35,3.786-4.834,5.939-6.992c1.132-1.135,2.777-2.232,4.299-2.406
			c3.127-0.359,4.464-1.853,4.48-4.841c0.03-5.249,0.142-10.5,0.075-15.747c-0.056-4.35-1.566-5.78-5.961-5.789
			c-14.001-0.029-28.002-0.025-42.004,0c-3.668,0.006-4.716,0.937-4.833,4.61c-0.143,4.496-0.112,9-0.046,13.5
			c0.076,5.151,3.042,8.046,8.199,8.063c8.375,0.028,16.751,0,25.127,0.016c1.314,0.003,2.628,0.114,3.966,0.176
			C549.204,397.579,549.204,400.468,549.204,403.358z"/>
		<path fill-rule="evenodd" clip-rule="evenodd" d="M661.355,337.917c0,3.368,0,6.736,0,10.43
			c8.373,4.212,16.808,8.456,25.298,12.727c0,12.618,0,25.07,0,37.773c-14.947,7.839-29.926,15.694-45.371,23.794
			c0-3.735,0-6.917,0-10.25c-8.61-4.586-17.057-9.085-25.499-13.581c0-12.673,0-25.132,0-37.792
			c8.793-4.471,17.578-8.9,26.326-13.399c6.191-3.185,12.333-6.465,18.496-9.702C660.855,337.917,661.105,337.917,661.355,337.917z
			 M661.65,403.279c0.308,0.104,0.616,0.207,0.924,0.311c1.977-2.38,3.83-4.881,5.982-7.09c1.038-1.065,2.596-2.126,3.994-2.238
			c3.354-0.267,4.658-1.925,4.664-5.059c0.01-5.25,0.132-10.5,0.048-15.748c-0.065-4.083-1.642-5.561-5.794-5.571
			c-14.126-0.034-28.253,0.04-42.378-0.053c-3.253-0.021-4.587,1.519-4.628,4.499c-0.063,4.625-0.109,9.251-0.028,13.875
			c0.085,4.87,3.14,7.826,8.032,7.846c8.375,0.035,16.752,0.01,25.127,0.011c1.336,0,2.672,0,4.058,0
			C661.65,397.466,661.65,400.373,661.65,403.279z"/>
		<path fill-rule="evenodd" clip-rule="evenodd" d="M766.37,337.917c0,3.368,0,6.736,0,10.43
			c8.373,4.212,16.808,8.456,25.298,12.727c0,12.618,0,25.07,0,37.773c-14.947,7.839-29.926,15.694-45.371,23.794
			c0-3.735,0-6.917,0-10.25c-8.61-4.586-17.057-9.085-25.499-13.581c0-12.673,0-25.132,0-37.792
			c8.793-4.471,17.577-8.9,26.326-13.399c6.19-3.185,12.333-6.465,18.496-9.702C765.87,337.917,766.12,337.917,766.37,337.917z
			 M766.67,403.285c0.313,0.104,0.626,0.207,0.938,0.311c1.973-2.386,3.82-4.892,5.971-7.104c1.036-1.065,2.599-2.119,3.998-2.23
			c3.359-0.268,4.647-1.942,4.653-5.07c0.01-5.249,0.132-10.5,0.046-15.748c-0.065-4.075-1.646-5.55-5.805-5.56
			c-14.126-0.034-28.253,0.04-42.379-0.052c-3.26-0.021-4.576,1.536-4.617,4.51c-0.062,4.625-0.108,9.252-0.027,13.875
			c0.087,4.867,3.143,7.815,8.044,7.835c8.376,0.034,16.752,0.01,25.127,0.01c1.335,0,2.67,0,4.051,0
			C766.67,397.473,766.67,400.379,766.67,403.285z"/>
		<path fill-rule="evenodd" clip-rule="evenodd" d="M904.39,398.675c-15.063,7.93-30.127,15.86-45.668,24.042
			c0-3.882,0-7.086,0-10.389c-8.504-4.52-16.853-8.957-25.343-13.47c0-12.473,0-24.92,0-37.82c4.473-2.306,9.193-4.771,13.942-7.182
			c9.555-4.851,19.127-9.665,28.681-14.517c0.757-0.384,1.425-0.944,2.134-1.423c0.25,0,0.5,0,0.75,0c0,3.461,0,6.921,0,10.444
			c8.63,4.334,17.066,8.571,25.504,12.809C904.39,373.671,904.39,386.173,904.39,398.675z M879.158,403.257
			c0.304,0.117,0.607,0.235,0.911,0.353c1.895-2.281,3.637-4.719,5.743-6.784c1.227-1.203,2.961-2.321,4.604-2.573
			c2.907-0.445,4.263-1.796,4.289-4.627c0.049-5.374,0.161-10.749,0.088-16.122c-0.057-4.113-1.621-5.607-5.747-5.618
			c-14.126-0.036-28.253,0.04-42.378-0.054c-3.227-0.021-4.63,1.444-4.672,4.452c-0.065,4.624-0.11,9.251-0.034,13.875
			c0.08,4.901,3.108,7.872,7.985,7.893c8.376,0.038,16.752,0.011,25.127,0.012c1.339,0,2.678,0,4.083,0
			C879.158,397.439,879.158,400.348,879.158,403.257z"/>
		<path fill-rule="evenodd" clip-rule="evenodd" d="M753.618,662.712c0-3.367,0-6.734,0-10.389
			c-8.408-4.475-16.854-8.968-25.321-13.474c0-12.652,0-25.111,0-37.806c14.971-7.604,29.941-15.207,45.371-23.044
			c0,3.711,0,6.888,0,10.278c8.582,4.317,17.017,8.563,25.503,12.832c0,12.622,0,25.074,0,37.76
			c-10.788,5.664-21.608,11.316-32.398,17.024c-4.17,2.207-8.271,4.541-12.403,6.817
			C754.118,662.712,753.869,662.712,753.618,662.712z M774.133,643.279c0.301,0.126,0.601,0.252,0.901,0.378
			c1.979-2.374,3.815-4.892,5.996-7.063c1.129-1.123,2.804-2.109,4.345-2.317c2.912-0.392,4.286-1.753,4.313-4.595
			c0.052-5.374,0.163-10.749,0.092-16.121c-0.056-4.128-1.61-5.63-5.725-5.641c-14.126-0.038-28.253,0.039-42.378-0.056
			c-3.213-0.021-4.651,1.407-4.693,4.429c-0.064,4.75-0.127,9.502-0.023,14.25c0.101,4.6,3.229,7.521,7.949,7.542
			c8.376,0.037,16.752,0.011,25.127,0.011c1.341,0,2.682,0,4.096,0C774.133,637.459,774.133,640.369,774.133,643.279z"/>
		<path fill-rule="evenodd" clip-rule="evenodd" d="M641.103,662.712c0-3.367,0-6.734,0-10.389
			c-8.409-4.475-16.854-8.968-25.321-13.474c0-12.652,0-25.111,0-37.806c14.97-7.604,29.941-15.207,45.371-23.044
			c0,3.708,0,6.888,0,10.277c8.582,4.318,17.018,8.563,25.503,12.833c0,12.622,0,25.074,0,37.76
			c-10.788,5.664-21.608,11.316-32.398,17.024c-4.17,2.207-8.271,4.541-12.404,6.817
			C641.603,662.712,641.354,662.712,641.103,662.712z M661.644,643.308c0.315,0.115,0.631,0.231,0.945,0.347
			c1.656-1.997,3.383-3.942,4.947-6.009c1.566-2.069,3.194-3.627,6.116-3.61c2.65,0.015,3.499-2.036,3.523-4.411
			c0.055-5.374,0.163-10.75,0.086-16.122c-0.059-4.09-1.636-5.573-5.78-5.584c-14.126-0.034-28.253,0.04-42.378-0.053
			c-3.247-0.021-4.599,1.499-4.64,4.486c-0.064,4.624-0.11,9.251-0.03,13.875c0.083,4.877,3.132,7.827,8.02,7.859
			c5.625,0.038,11.251,0.01,16.876,0.01c4.091,0,8.182,0,12.314,0C661.644,637.492,661.644,640.399,661.644,643.308z"/>
		<path fill-rule="evenodd" clip-rule="evenodd" d="M503.083,601.203c15.059-7.68,30.117-15.359,45.634-23.272
			c0,3.854,0,7.056,0,10.396c8.575,4.312,17.012,8.555,25.453,12.799c0,12.563,0,24.899,0,37.696
			c-5.489,2.894-11.202,5.876-16.887,8.91c-9.325,4.976-18.631,9.985-27.945,14.98c-0.25,0-0.5,0-0.75,0c0-3.457,0-6.913,0-10.376
			c-8.647-4.62-17.075-9.124-25.503-13.627C503.083,626.207,503.083,613.705,503.083,601.203z M549.14,643.319
			c0.313,0.103,0.626,0.206,0.939,0.31c1.972-2.386,3.82-4.892,5.97-7.104c1.036-1.065,2.599-2.119,3.998-2.23
			c3.358-0.268,4.647-1.942,4.653-5.069c0.01-5.249,0.132-10.5,0.047-15.748c-0.066-4.075-1.647-5.55-5.805-5.56
			c-14.126-0.033-28.253,0.039-42.379-0.052c-3.26-0.021-4.577,1.535-4.617,4.51c-0.063,4.624-0.109,9.251-0.028,13.875
			c0.086,4.867,3.143,7.814,8.044,7.835c8.375,0.034,16.751,0.01,25.127,0.01c1.335,0,2.67,0,4.051,0
			C549.14,637.506,549.14,640.412,549.14,643.319z"/>
		<path fill-rule="evenodd" clip-rule="evenodd" d="M503.083,481.187c15.07-7.685,30.14-15.369,45.679-23.294
			c0,3.899,0,7.109,0,10.438c8.586,4.319,17.031,8.566,25.435,12.794c0,12.63,0,24.98,0,37.706
			c-14.95,7.839-30.016,15.738-45.56,23.89c0-3.892,0-7.104,0-10.373c-8.631-4.612-17.092-9.134-25.554-13.656
			C503.083,506.19,503.083,493.688,503.083,481.187z M549.14,523.303c0.313,0.104,0.626,0.206,0.939,0.309
			c1.972-2.385,3.82-4.891,5.97-7.103c1.036-1.065,2.598-2.119,3.998-2.23c3.358-0.269,4.647-1.942,4.653-5.069
			c0.01-5.25,0.132-10.5,0.047-15.748c-0.066-4.075-1.647-5.55-5.805-5.56c-14.126-0.034-28.253,0.039-42.379-0.052
			c-3.26-0.021-4.577,1.535-4.617,4.509c-0.063,4.625-0.109,9.252-0.028,13.875c0.086,4.868,3.143,7.815,8.043,7.835
			c8.375,0.035,16.751,0.011,25.127,0.011c1.335,0,2.67,0,4.051,0C549.14,517.489,549.14,520.396,549.14,523.303z"/>
		<path fill-rule="evenodd" clip-rule="evenodd" fill="#FFFFFF" d="M548.09,337.917c-8.359,4.357-16.708,8.735-25.083,13.065
			c-6.625,3.426-13.281,6.794-19.924,10.188c0-7.751,0-15.502,0-23.253C518.086,337.917,533.088,337.917,548.09,337.917z"/>
		<path fill-rule="evenodd" clip-rule="evenodd" fill="#FFFFFF" d="M503.083,638.709c8.428,4.503,16.856,9.007,25.503,13.627
			c0,3.463,0,6.919,0,10.376c-8.501,0-17.002,0-25.503,0C503.083,654.711,503.083,646.71,503.083,638.709z"/>
		<path fill-rule="evenodd" clip-rule="evenodd" fill="#FFFFFF" d="M904.39,361.17c-8.438-4.238-16.874-8.475-25.504-12.809
			c0-3.523,0-6.983,0-10.444c8.437,0,16.873,0,25.504,0C904.39,345.667,904.39,353.418,904.39,361.17z"/>
		<path fill-rule="evenodd" clip-rule="evenodd" d="M686.683,481.107c0,12.565,0,24.912,0,37.732
			c-14.854,7.794-29.917,15.698-45.447,23.847c0-3.808,0-7.005,0-10.316c-8.515-4.526-16.871-8.968-25.38-13.491
			c0-12.467,0-24.924,0-37.881c14.782-7.511,29.84-15.161,45.351-23.043c0,3.79,0,6.984,0,10.338
			C669.791,472.61,678.232,476.856,686.683,481.107z M661.645,523.291c0.315,0.115,0.63,0.231,0.945,0.347
			c1.655-1.999,3.382-3.943,4.947-6.011c1.566-2.068,3.195-3.625,6.116-3.608c2.65,0.015,3.498-2.038,3.522-4.413
			c0.055-5.374,0.163-10.749,0.086-16.121c-0.059-4.09-1.636-5.573-5.781-5.583c-14.126-0.034-28.253,0.039-42.378-0.053
			c-3.248-0.021-4.598,1.501-4.639,4.487c-0.064,4.624-0.11,9.251-0.03,13.875c0.084,4.876,3.133,7.826,8.021,7.858
			c5.625,0.038,11.251,0.01,16.876,0.01c4.091,0,8.182,0,12.314,0C661.645,517.476,661.645,520.383,661.645,523.291z"/>
		<path fill-rule="evenodd" clip-rule="evenodd" d="M766.132,468.258c8.753,4.396,17.095,8.586,25.518,12.816
			c0,12.586,0,25.036,0,37.795c-14.881,7.808-29.858,15.665-45.31,23.771c0-3.675,0-6.844,0-10.21
			c-8.604-4.581-17.046-9.076-25.531-13.595c0-12.614,0-25.072,0-37.812c14.918-7.579,29.89-15.185,45.323-23.025
			C766.132,461.657,766.132,464.824,766.132,468.258z M766.658,523.29c0.315,0.116,0.631,0.232,0.945,0.349
			c1.655-1.998,3.382-3.943,4.947-6.01c1.566-2.068,3.193-3.627,6.115-3.61c2.65,0.016,3.5-2.035,3.523-4.411
			c0.056-5.373,0.164-10.749,0.087-16.121c-0.059-4.091-1.635-5.575-5.779-5.585c-14.126-0.034-28.253,0.04-42.378-0.053
			c-3.246-0.021-4.6,1.497-4.642,4.485c-0.063,4.624-0.108,9.251-0.029,13.875c0.083,4.877,3.132,7.828,8.019,7.86
			c5.625,0.038,11.251,0.01,16.876,0.01c4.091,0,8.182,0,12.315,0C766.658,517.475,766.658,520.382,766.658,523.29z"/>
		<path fill-rule="evenodd" clip-rule="evenodd" fill="#FFFFFF" d="M549.204,403.358c0-2.89,0-5.78,0-9.112
			c-1.338-0.062-2.652-0.173-3.966-0.176c-8.376-0.016-16.752,0.012-25.127-0.016c-5.156-0.018-8.123-2.912-8.199-8.063
			c-0.066-4.499-0.097-9.003,0.046-13.5c0.116-3.673,1.165-4.604,4.833-4.61c14.001-0.025,28.003-0.028,42.004,0
			c4.395,0.009,5.905,1.439,5.961,5.789c0.067,5.248-0.045,10.498-0.075,15.747c-0.017,2.988-1.353,4.482-4.48,4.841
			c-1.521,0.174-3.167,1.271-4.299,2.406c-2.153,2.158-3.978,4.643-5.939,6.992C549.709,403.558,549.457,403.458,549.204,403.358z
			 M521.951,380.755c4.001-3.009,4.68-3.013,8.735-0.112c0.273-3.1-1.095-4.814-4.025-5.133
			C523.841,375.203,522.367,376.81,521.951,380.755z M555.414,380.75c-0.278-3.85-1.72-5.486-4.556-5.244
			c-2.959,0.253-4.302,1.986-4.167,5.056C550.871,377.775,551.552,377.782,555.414,380.75z"/>
		<path fill-rule="evenodd" clip-rule="evenodd" fill="#FFFFFF" d="M661.65,403.279c0-2.907,0-5.813,0-9.217
			c-1.386,0-2.722,0-4.058,0c-8.375,0-16.751,0.024-25.127-0.011c-4.893-0.021-7.947-2.976-8.032-7.846
			c-0.081-4.624-0.035-9.25,0.028-13.875c0.041-2.98,1.375-4.52,4.628-4.499c14.125,0.092,28.252,0.019,42.378,0.053
			c4.152,0.01,5.729,1.488,5.794,5.571c0.084,5.248-0.038,10.499-0.048,15.748c-0.006,3.134-1.311,4.792-4.664,5.059
			c-1.398,0.111-2.956,1.172-3.994,2.238c-2.152,2.209-4.006,4.71-5.982,7.09C662.267,403.486,661.958,403.383,661.65,403.279z
			 M663.43,375.482c-2.552,0.089-4.354,2.041-4.265,4.617c0.09,2.553,2.039,4.354,4.617,4.264c2.552-0.089,4.354-2.041,4.265-4.617
			C667.958,377.194,666.006,375.392,663.43,375.482z M643.293,379.746c-0.089-2.553-2.039-4.354-4.617-4.264
			c-2.552,0.089-4.354,2.04-4.264,4.617c0.089,2.552,2.04,4.354,4.617,4.264C641.581,384.274,643.383,382.323,643.293,379.746z"/>
		<path fill-rule="evenodd" clip-rule="evenodd" fill="#FFFFFF" d="M766.67,403.285c0-2.906,0-5.813,0-9.223
			c-1.381,0-2.716,0-4.051,0c-8.375,0-16.751,0.024-25.127-0.01c-4.901-0.02-7.957-2.968-8.044-7.835
			c-0.081-4.623-0.034-9.25,0.027-13.875c0.041-2.974,1.357-4.531,4.617-4.51c14.126,0.091,28.253,0.018,42.379,0.052
			c4.158,0.01,5.739,1.485,5.805,5.56c0.086,5.248-0.036,10.499-0.046,15.748c-0.006,3.127-1.294,4.802-4.653,5.07
			c-1.399,0.111-2.962,1.165-3.998,2.23c-2.15,2.212-3.998,4.718-5.971,7.104C767.296,403.492,766.983,403.389,766.67,403.285z
			 M748.308,379.949c0.014-2.576-1.841-4.454-4.413-4.468c-2.575-0.014-4.454,1.842-4.468,4.414
			c-0.014,2.575,1.842,4.454,4.413,4.468C746.415,384.377,748.294,382.521,748.308,379.949z M772.915,380.737
			c-0.221-3.854-1.913-5.573-4.855-5.242c-2.597,0.292-3.801,2.046-3.455,5.033C768.219,377.75,769.025,377.75,772.915,380.737z"/>
		<path fill-rule="evenodd" clip-rule="evenodd" fill="#FFFFFF" d="M879.158,403.257c0-2.909,0-5.818,0-9.194
			c-1.405,0-2.744,0-4.083,0c-8.375,0-16.751,0.026-25.127-0.012c-4.877-0.021-7.905-2.992-7.985-7.893
			c-0.076-4.624-0.031-9.25,0.034-13.875c0.042-3.008,1.445-4.474,4.672-4.452c14.125,0.094,28.252,0.018,42.378,0.054
			c4.126,0.011,5.69,1.505,5.747,5.618c0.073,5.373-0.039,10.748-0.088,16.122c-0.026,2.832-1.382,4.183-4.289,4.627
			c-1.644,0.251-3.378,1.37-4.604,2.573c-2.106,2.065-3.849,4.503-5.743,6.784C879.766,403.492,879.462,403.374,879.158,403.257z
			 M885.577,379.968c0.022-2.578-1.824-4.463-4.396-4.486c-2.577-0.023-4.463,1.825-4.486,4.396
			c-0.022,2.577,1.825,4.462,4.396,4.486C883.668,384.386,885.554,382.538,885.577,379.968z M860.629,380.463
			c-0.126-3.459-1.528-5.055-4.378-4.982c-2.833,0.073-4.203,1.835-3.942,5.071C855.928,377.782,856.606,377.774,860.629,380.463z"
			/>
		<path fill-rule="evenodd" clip-rule="evenodd" fill="#FFFFFF" d="M774.133,643.279c0-2.91,0-5.82,0-9.184
			c-1.414,0-2.755,0-4.096,0c-8.375,0-16.751,0.026-25.127-0.011c-4.72-0.021-7.849-2.942-7.949-7.542
			c-0.104-4.748-0.041-9.5,0.023-14.25c0.042-3.021,1.48-4.45,4.693-4.429c14.125,0.095,28.252,0.018,42.378,0.056
			c4.114,0.011,5.669,1.513,5.725,5.641c0.071,5.372-0.04,10.747-0.092,16.121c-0.027,2.842-1.401,4.203-4.313,4.595
			c-1.541,0.208-3.216,1.194-4.345,2.317c-2.181,2.172-4.017,4.689-5.996,7.063C774.733,643.531,774.434,643.405,774.133,643.279z
			 M747.073,621.671c5.054,1.101,7.644,0.744,8.589-1.179C750.61,619.391,748.02,619.746,747.073,621.671z M771.769,621.16
			c5.689,1.602,7.792,1.277,8.797-1.145C777.479,620.328,774.46,619.33,771.769,621.16z"/>
		<path fill-rule="evenodd" clip-rule="evenodd" fill="#FFFFFF" d="M661.644,643.308c0-2.908,0-5.815,0-9.212
			c-4.133,0-8.224,0-12.314,0c-5.625,0-11.251,0.028-16.876-0.01c-4.888-0.032-7.937-2.982-8.02-7.859
			c-0.08-4.624-0.034-9.251,0.03-13.875c0.041-2.987,1.393-4.508,4.64-4.486c14.125,0.093,28.252,0.019,42.378,0.053
			c4.145,0.011,5.722,1.494,5.78,5.584c0.077,5.372-0.031,10.748-0.086,16.122c-0.024,2.375-0.873,4.426-3.523,4.411
			c-2.922-0.017-4.55,1.541-6.116,3.61c-1.564,2.066-3.291,4.012-4.947,6.009C662.274,643.539,661.959,643.423,661.644,643.308z
			 M670.304,619.97c0.006-3.787-2.739-6.622-6.498-6.712c-3.954-0.094-6.891,2.752-6.897,6.685
			c-0.006,3.787,2.739,6.622,6.498,6.712C667.36,626.748,670.298,623.901,670.304,619.97z M645.551,619.969
			c0.006-3.786-2.739-6.621-6.498-6.71c-3.956-0.095-6.892,2.751-6.898,6.684c-0.006,3.787,2.739,6.622,6.498,6.712
			C642.607,626.748,645.544,623.901,645.551,619.969z"/>
		<path fill-rule="evenodd" clip-rule="evenodd" fill="#FFFFFF" d="M549.14,643.319c0-2.907,0-5.813,0-9.224
			c-1.381,0-2.715,0-4.051,0c-8.376,0-16.751,0.024-25.127-0.01c-4.901-0.021-7.958-2.968-8.044-7.835
			c-0.081-4.624-0.035-9.251,0.028-13.875c0.04-2.975,1.357-4.531,4.617-4.51c14.126,0.091,28.252,0.019,42.379,0.052
			c4.158,0.01,5.738,1.484,5.805,5.56c0.085,5.248-0.037,10.499-0.047,15.748c-0.006,3.127-1.294,4.802-4.653,5.069
			c-1.399,0.111-2.962,1.165-3.998,2.23c-2.15,2.212-3.998,4.718-5.97,7.104C549.766,643.525,549.453,643.422,549.14,643.319z
			 M530.662,621.915c-2.885,3.266-5.739,3.142-8.72,0.087c0.421,4.064,1.894,5.672,4.716,5.367
			C529.59,627.053,530.957,625.337,530.662,621.915z M555.28,622.053c-2.747,3.121-5.601,3.055-8.623-0.13
			c0.487,4.165,1.971,5.671,4.792,5.472C554.096,627.207,555.31,625.598,555.28,622.053z"/>
		<path fill-rule="evenodd" clip-rule="evenodd" fill="#FFFFFF" d="M549.14,523.303c0-2.906,0-5.813,0-9.224
			c-1.381,0-2.716,0-4.051,0c-8.376,0-16.752,0.024-25.127-0.011c-4.901-0.02-7.957-2.967-8.043-7.835
			c-0.081-4.623-0.035-9.25,0.028-13.875c0.04-2.974,1.357-4.53,4.617-4.509c14.126,0.091,28.252,0.018,42.379,0.052
			c4.158,0.01,5.738,1.484,5.805,5.56c0.085,5.248-0.037,10.498-0.047,15.748c-0.006,3.127-1.294,4.801-4.653,5.069
			c-1.4,0.111-2.962,1.165-3.998,2.23c-2.15,2.212-3.998,4.718-5.97,7.103C549.766,523.509,549.453,523.406,549.14,523.303z
			 M522.095,496.389c0.113,3.455,1.514,5.058,4.361,4.991c2.836-0.065,4.208-1.821,3.963-5.073
			C526.786,499.084,526.103,499.09,522.095,496.389z M546.82,496.068c0.165,3.881,1.819,5.6,4.779,5.3
			c2.611-0.264,3.817-1.972,3.522-5.278C552.399,499.354,549.625,498.879,546.82,496.068z"/>
		<path fill-rule="evenodd" clip-rule="evenodd" fill="#FFFFFF" d="M661.645,523.291c0-2.908,0-5.815,0-9.212
			c-4.133,0-8.224,0-12.314,0c-5.625,0-11.251,0.028-16.876-0.01c-4.888-0.032-7.937-2.982-8.021-7.858
			c-0.08-4.624-0.034-9.251,0.03-13.875c0.041-2.986,1.391-4.509,4.639-4.487c14.125,0.092,28.252,0.019,42.378,0.053
			c4.146,0.01,5.723,1.493,5.781,5.583c0.077,5.372-0.031,10.747-0.086,16.121c-0.024,2.375-0.872,4.428-3.522,4.413
			c-2.921-0.017-4.55,1.54-6.116,3.608c-1.565,2.067-3.292,4.012-4.947,6.011C662.274,523.522,661.96,523.406,661.645,523.291z
			 M635.759,499.945c1.405,1.011,2.24,2.08,2.993,2.025c0.797-0.059,1.515-1.187,2.268-1.848c-0.754-0.783-1.399-1.963-2.302-2.212
			C638.125,497.748,637.162,498.928,635.759,499.945z M663.51,503.034c1.062-1.38,2.27-2.312,2.122-2.907
			c-0.225-0.907-1.389-1.582-2.153-2.355c-0.68,0.734-1.826,1.422-1.905,2.216C661.498,500.739,662.541,501.604,663.51,503.034z"/>
		<path fill-rule="evenodd" clip-rule="evenodd" fill="#FFFFFF" d="M766.658,523.29c0-2.908,0-5.815,0-9.211
			c-4.134,0-8.225,0-12.315,0c-5.625,0-11.251,0.028-16.876-0.01c-4.887-0.032-7.936-2.983-8.019-7.86
			c-0.079-4.624-0.034-9.251,0.029-13.875c0.042-2.988,1.396-4.507,4.642-4.485c14.125,0.093,28.252,0.019,42.378,0.053
			c4.145,0.01,5.721,1.494,5.779,5.585c0.077,5.372-0.031,10.748-0.087,16.121c-0.023,2.376-0.873,4.427-3.523,4.411
			c-2.922-0.017-4.549,1.542-6.115,3.61c-1.565,2.066-3.292,4.012-4.947,6.01C767.289,523.522,766.974,523.406,766.658,523.29z
			 M749.197,505.123l-0.135,0.148c4.117-4.235,3.249-8.845-2.214-11.759c-1.904,0.623-3.808,1.247-5.712,1.87
			c-3.487,2.887-3.505,6.888-0.043,9.86c0.161,0.09,0.321,0.182,0.48,0.276C744.093,508.294,746.395,508.174,749.197,505.123z
			 M770.059,505.271c3.298-3.363,3.216-7.11-0.218-9.889c-2.567-2.782-5.134-2-7.701,0.001c-3.065,2.506-3.377,6.947-0.695,9.899
			c2.639,2.904,5.958,2.845,8.757-0.157L770.059,505.271z"/>
		<path fill-rule="evenodd" clip-rule="evenodd" d="M521.951,380.755c0.416-3.946,1.89-5.552,4.71-5.245
			c2.93,0.319,4.299,2.033,4.025,5.133C526.631,377.743,525.953,377.746,521.951,380.755z"/>
		<path fill-rule="evenodd" clip-rule="evenodd" d="M555.414,380.75c-3.862-2.967-4.543-2.975-8.723-0.188
			c-0.135-3.07,1.208-4.803,4.167-5.056C553.694,375.263,555.136,376.9,555.414,380.75z"/>
		<path fill-rule="evenodd" clip-rule="evenodd" d="M663.43,375.482c2.576-0.09,4.528,1.712,4.617,4.264
			c0.09,2.577-1.713,4.528-4.265,4.617c-2.578,0.09-4.527-1.711-4.617-4.264C659.076,377.522,660.878,375.571,663.43,375.482z"/>
		<path fill-rule="evenodd" clip-rule="evenodd" d="M643.293,379.746c0.09,2.577-1.712,4.528-4.264,4.617
			c-2.577,0.089-4.528-1.712-4.617-4.264c-0.09-2.577,1.712-4.528,4.264-4.617C641.254,375.392,643.204,377.193,643.293,379.746z"/>
		<path fill-rule="evenodd" clip-rule="evenodd" d="M748.308,379.949c-0.014,2.571-1.893,4.428-4.468,4.414
			c-2.571-0.014-4.427-1.893-4.413-4.468c0.014-2.572,1.893-4.428,4.468-4.414C746.467,375.496,748.321,377.374,748.308,379.949z"/>
		<path fill-rule="evenodd" clip-rule="evenodd" d="M772.915,380.737c-3.89-2.987-4.696-2.987-8.311-0.208
			c-0.346-2.987,0.858-4.741,3.455-5.033C771.002,375.165,772.694,376.884,772.915,380.737z"/>
		<path fill-rule="evenodd" clip-rule="evenodd" d="M885.577,379.968c-0.023,2.57-1.909,4.418-4.485,4.396
			c-2.571-0.023-4.419-1.909-4.396-4.486c0.023-2.57,1.909-4.418,4.486-4.396C883.753,375.504,885.6,377.39,885.577,379.968z"/>
		<path fill-rule="evenodd" clip-rule="evenodd" d="M860.629,380.463c-4.022-2.689-4.701-2.682-8.32,0.089
			c-0.261-3.236,1.109-4.998,3.942-5.071C859.101,375.409,860.503,377.004,860.629,380.463z"/>
		<path fill-rule="evenodd" clip-rule="evenodd" d="M747.073,621.671c0.946-1.925,3.537-2.28,8.589-1.179
			C754.717,622.415,752.127,622.771,747.073,621.671z"/>
		<path fill-rule="evenodd" clip-rule="evenodd" d="M771.769,621.16c2.691-1.83,5.71-0.832,8.797-1.145
			C779.561,622.438,777.458,622.762,771.769,621.16z"/>
		<path fill-rule="evenodd" clip-rule="evenodd" d="M670.304,619.97c-0.006,3.932-2.943,6.778-6.897,6.685
			c-3.759-0.09-6.504-2.925-6.498-6.712c0.007-3.933,2.943-6.778,6.897-6.685C667.564,613.348,670.31,616.183,670.304,619.97z"/>
		<path fill-rule="evenodd" clip-rule="evenodd" d="M645.551,619.969c-0.007,3.933-2.943,6.779-6.898,6.686
			c-3.758-0.09-6.503-2.925-6.498-6.712c0.006-3.933,2.942-6.778,6.898-6.684C642.812,613.348,645.557,616.183,645.551,619.969z"/>
		<path fill-rule="evenodd" clip-rule="evenodd" d="M530.662,621.915c0.295,3.422-1.072,5.138-4.004,5.454
			c-2.822,0.305-4.294-1.303-4.716-5.367C524.923,625.057,527.776,625.181,530.662,621.915z"/>
		<path fill-rule="evenodd" clip-rule="evenodd" d="M555.28,622.053c0.029,3.545-1.184,5.154-3.831,5.342
			c-2.821,0.199-4.305-1.307-4.792-5.472C549.68,625.107,552.534,625.174,555.28,622.053z"/>
		<path fill-rule="evenodd" clip-rule="evenodd" d="M522.095,496.389c4.007,2.701,4.691,2.695,8.325-0.082
			c0.244,3.252-1.127,5.008-3.963,5.073C523.609,501.446,522.208,499.844,522.095,496.389z"/>
		<path fill-rule="evenodd" clip-rule="evenodd" d="M546.82,496.068c2.805,2.811,5.579,3.285,8.301,0.021
			c0.294,3.307-0.912,5.015-3.522,5.278C548.639,501.668,546.985,499.949,546.82,496.068z"/>
		<path fill-rule="evenodd" clip-rule="evenodd" d="M635.759,499.945c1.403-1.018,2.366-2.197,2.958-2.034
			c0.902,0.249,1.547,1.429,2.302,2.212c-0.752,0.661-1.471,1.789-2.268,1.848C637.999,502.025,637.164,500.956,635.759,499.945z"/>
		<path fill-rule="evenodd" clip-rule="evenodd" d="M663.51,503.034c-0.969-1.431-2.012-2.295-1.937-3.047
			c0.079-0.794,1.226-1.481,1.905-2.216c0.765,0.773,1.929,1.448,2.153,2.355C665.779,500.723,664.571,501.654,663.51,503.034z"/>
		<path fill-rule="evenodd" clip-rule="evenodd" fill="#FFFFFF" d="M741.574,505.52c-0.159-0.095-0.319-0.187-0.48-0.276
			c-2.196-3.297-2.287-6.584,0.043-9.86c1.904-0.623,3.808-1.247,5.712-1.87c-0.715,0.845-1.484,1.649-2.134,2.542
			c-1.771,2.435-0.563,5.595,2.323,6.028c0.945,0.143,1.93,0.022,3.078,0.022c-0.373,1.119-0.713,2.143-1.054,3.166l0.135-0.148
			C746.714,506.364,744.22,507.39,741.574,505.52z"/>
		<path fill-rule="evenodd" clip-rule="evenodd" fill="#FFFFFF" d="M762.14,495.383c2.567-2.001,5.134-2.783,7.701-0.001
			c2.415,3.245,1.935,6.554,0.218,9.889l0.143-0.146c-1.546,0.574-3.092,1.148-4.638,1.723c1.674-2.283,3.52-4.304,1.463-6.952
			c-1.913-2.462-4.247-1.481-7.197,0.643C760.877,498.2,761.508,496.792,762.14,495.383z"/>
		<path fill-rule="evenodd" clip-rule="evenodd" d="M762.14,495.383c-0.632,1.409-1.263,2.817-2.311,5.155
			c2.95-2.124,5.284-3.104,7.197-0.643c2.057,2.648,0.211,4.669-1.463,6.952c1.546-0.574,3.092-1.148,4.638-1.723
			c-2.799,3.002-6.118,3.062-8.757,0.157C758.763,502.33,759.074,497.889,762.14,495.383z"/>
		<path fill-rule="evenodd" clip-rule="evenodd" d="M749.063,505.271c0.341-1.023,0.681-2.047,1.054-3.166
			c-1.148,0-2.133,0.12-3.078-0.022c-2.886-0.434-4.095-3.594-2.323-6.028c0.649-0.893,1.419-1.697,2.134-2.542
			C752.312,496.427,753.18,501.036,749.063,505.271z"/>
		<path fill-rule="evenodd" clip-rule="evenodd" d="M741.137,495.383c-2.33,3.276-2.239,6.563-0.043,9.86
			C737.632,502.271,737.649,498.27,741.137,495.383z"/>
		<path fill-rule="evenodd" clip-rule="evenodd" d="M770.059,505.271c1.717-3.335,2.197-6.644-0.218-9.889
			C773.274,498.16,773.356,501.907,770.059,505.271z"/>
		<path fill-rule="evenodd" clip-rule="evenodd" d="M741.574,505.52c2.646,1.87,5.14,0.845,7.623-0.396
			C746.395,508.174,744.093,508.294,741.574,505.52z"/>
	</g>
</g>
<g id="Layer_2">
</g>
</svg>
